<svg width="34" height="32" viewBox="0 0 34 32" fill="none" xmlns="http://www.w3.org/2000/svg">
<path d="M18.8629 31.2794H6.26753V27.6954L7.39395 26.8762V26.0569C7.39395 26.0569 7.60732 25.8233 7.92004 25.4425C8.63568 24.5711 9.87158 22.9288 10.2612 21.5513C10.821 19.5718 10.0564 15.9192 10.0564 15.9192H15.3813C15.3813 15.9192 14.5118 18.9574 14.9716 20.9369C15.306 22.3761 16.5616 24.4291 17.2221 25.4425C17.47 25.823 17.6341 26.0569 17.6341 26.0569V26.8762L18.8629 27.6954V31.2794Z" fill="white"/>
<path d="M7.39395 26.8762L6.26753 27.6954V31.2794H18.8629V27.6954L17.6341 26.8762M7.39395 26.8762V26.0569C7.39395 26.0569 7.60732 25.8233 7.92004 25.4425M7.39395 26.8762H17.6341M17.6341 26.8762V26.0569C17.6341 26.0569 17.47 25.823 17.2221 25.4425M7.92004 25.4425C8.63568 24.5711 9.87158 22.9288 10.2612 21.5513C10.821 19.5718 10.0564 15.9192 10.0564 15.9192H15.3813C15.3813 15.9192 14.5118 18.9574 14.9716 20.9369C15.306 22.3761 16.5616 24.4291 17.2221 25.4425M7.92004 25.4425H17.2221" stroke="black" stroke-width="0.723179"/>
<path d="M12.1093 6.043V4.66317H10.7037V3.72616H12.0156V2.32063H13.0463V3.72616H14.3581V4.66317H13.0463V6.03257C13.6961 6.20253 14.077 6.73113 14.077 7.38053C14.077 7.84904 13.9904 8.15759 13.569 8.46423L17.6377 12.4404L15.3888 14.4082H15.951V16.5633H9.20452V14.4082H9.86043L7.79899 12.4404L11.4534 8.41125H11.5176C11.1355 8.10205 11.0786 7.66163 11.0786 7.38053C11.0786 6.75378 11.5036 6.22529 12.1093 6.043Z" fill="white"/>
<path d="M15.3888 14.4082L17.6377 12.4404L13.569 8.46423C13.9904 8.15759 14.077 7.84904 14.077 7.38053C14.077 6.73113 13.6961 6.20253 13.0463 6.03257V4.66317H14.3581V3.72616H13.0463V2.32063H12.0156V3.72616H10.7037V4.66317H12.1093V6.043C11.5036 6.22529 11.0786 6.75378 11.0786 7.38053C11.0786 7.66163 11.1355 8.10205 11.5176 8.41125H11.4534L7.79899 12.4404L9.86043 14.4082M15.3888 14.4082H15.951V16.5633H9.20452V14.4082H9.86043M15.3888 14.4082H9.86043" stroke="black" stroke-width="0.723179"/>
<path d="M20.5 3.16667L29.5 9.5L20.5 15.8333V3.16667Z" fill="white"/>
<path d="M17.5 3.16667L26.5 9.5L17.5 15.8333V3.16667Z" fill="white" fill-opacity="0.44"/>
</svg>
