<svg width="52" height="50" viewBox="0 0 52 50" fill="none" xmlns="http://www.w3.org/2000/svg">
<path d="M12.7551 6.94444C12.7551 7.6301 12.8676 8.2898 13.0756 8.90683L11.6765 9.55003C10.5166 8.37176 8.88872 7.63889 7.08617 7.63889C3.56394 7.63889 0.708618 10.4371 0.708618 13.8889C0.708618 16.9658 2.97747 19.5234 5.96507 20.0426L9.3254 31.3333C9.39554 31.569 9.49726 31.7946 9.62789 32.004L11.5646 35.1098L11.5527 35.1119C10.1988 35.3466 9.21202 36.4998 9.21202 37.8472V43.0556C9.21202 44.5897 10.4811 45.8333 12.0465 45.8333L39.0284 45.8333C39.7802 45.8333 40.5011 45.5407 41.0327 45.0197C41.5643 44.4988 41.8629 43.7923 41.8629 43.0556V37.8472C41.8629 36.4982 40.8739 35.3442 39.5181 35.1112L39.4611 35.1014L41.3925 32.004C41.5232 31.7946 41.6249 31.569 41.695 31.3333L45.0553 20.0426C48.0429 19.5234 50.3118 16.9658 50.3118 13.8889C50.3118 10.4371 47.4565 7.63889 43.9342 7.63889C42.1294 7.63889 40.4997 8.3736 39.3395 9.55448L37.9429 8.91243C38.1521 8.29378 38.2653 7.63217 38.2653 6.94444C38.2653 3.49266 35.41 0.694443 31.8878 0.694443C28.3655 0.694443 25.5102 3.49266 25.5102 6.94444C25.5102 3.49266 22.6549 0.694443 19.1327 0.694443C15.6104 0.694443 12.7551 3.49266 12.7551 6.94444Z" fill="#D17B7B"/>
<path d="M20.4045 10.1863C21.733 9.68539 22.6757 8.42282 22.6757 6.94445C22.6757 5.0268 21.0894 3.47223 19.1327 3.47223C17.1759 3.47223 15.5896 5.0268 15.5896 6.94445C15.5896 8.71657 16.9442 10.1786 18.6941 10.3903L17.114 22.9167L9.49702 16.4334C10.1935 15.7993 10.6293 14.894 10.6293 13.8889C10.6293 11.9712 9.04296 10.4167 7.08617 10.4167C5.12938 10.4167 3.54308 11.9712 3.54308 13.8889C3.54308 15.8066 5.12938 17.3611 7.08617 17.3611C7.43063 17.3611 7.76362 17.313 8.07849 17.2231L12.0465 30.5556L16.1498 37.1358L12.0465 37.8472V43.0556L39.0284 43.0556V37.8472L34.8724 37.1329L38.9739 30.5556L42.9419 17.2231C43.2568 17.313 43.5898 17.3611 43.9342 17.3611C45.891 17.3611 47.4773 15.8066 47.4773 13.8889C47.4773 11.9712 45.891 10.4167 43.9342 10.4167C41.9774 10.4167 40.3912 11.9712 40.3912 13.8889C40.3912 14.894 40.8269 15.7993 41.5234 16.4334L33.9064 22.9167L32.3263 10.3903C34.0762 10.1786 35.4308 8.71657 35.4308 6.94445C35.4308 5.0268 33.8445 3.47223 31.8878 3.47223C29.931 3.47223 28.3447 5.0268 28.3447 6.94445C28.3447 8.42282 29.2874 9.68539 30.6159 10.1863L25.5102 21.5278L20.4045 10.1863Z" fill="#F0F0E6"/>
</svg>
